<mxfile host="65bd71144e">
    <diagram id="MuHep_Bwdvs4k8ao3mro" name="Page-1">
        <mxGraphModel dx="891" dy="1259" grid="1" gridSize="10" guides="1" tooltips="1" connect="1" arrows="1" fold="1" page="1" pageScale="1" pageWidth="850" pageHeight="1100" math="0" shadow="0">
            <root>
                <mxCell id="0"/>
                <mxCell id="1" parent="0"/>
                <mxCell id="2" value="Combinations" style="swimlane;startSize=20;horizontal=1;containerType=tree;newEdgeStyle={&quot;edgeStyle&quot;:&quot;elbowEdgeStyle&quot;,&quot;startArrow&quot;:&quot;none&quot;,&quot;endArrow&quot;:&quot;none&quot;};" vertex="1" parent="1">
                    <mxGeometry x="5" y="170" width="840" height="490" as="geometry"/>
                </mxCell>
                <mxCell id="3" value="" style="edgeStyle=elbowEdgeStyle;elbow=vertical;sourcePerimeterSpacing=0;targetPerimeterSpacing=0;startArrow=none;endArrow=none;rounded=0;curved=0;" edge="1" parent="2" source="5" target="6">
                    <mxGeometry relative="1" as="geometry"/>
                </mxCell>
                <UserObject label="[ ]" treeRoot="1" id="5">
                    <mxCell style="whiteSpace=wrap;html=1;align=center;treeFolding=1;treeMoving=1;newEdgeStyle={&quot;edgeStyle&quot;:&quot;elbowEdgeStyle&quot;,&quot;startArrow&quot;:&quot;none&quot;,&quot;endArrow&quot;:&quot;none&quot;};" vertex="1" parent="2">
                        <mxGeometry x="430" y="40" width="60" height="60" as="geometry"/>
                    </mxCell>
                </UserObject>
                <mxCell id="6" value="[ ]" style="whiteSpace=wrap;html=1;align=center;verticalAlign=middle;treeFolding=1;treeMoving=1;newEdgeStyle={&quot;edgeStyle&quot;:&quot;elbowEdgeStyle&quot;,&quot;startArrow&quot;:&quot;none&quot;,&quot;endArrow&quot;:&quot;none&quot;};" vertex="1" parent="2">
                    <mxGeometry x="300" y="150" width="50" height="60" as="geometry"/>
                </mxCell>
                <mxCell id="14" value="" style="edgeStyle=elbowEdgeStyle;elbow=vertical;sourcePerimeterSpacing=0;targetPerimeterSpacing=0;startArrow=none;endArrow=none;rounded=0;curved=0;" edge="1" target="15" source="6" parent="2">
                    <mxGeometry relative="1" as="geometry">
                        <mxPoint x="375" y="280" as="sourcePoint"/>
                    </mxGeometry>
                </mxCell>
                <mxCell id="15" value="[ ]" style="whiteSpace=wrap;html=1;align=center;verticalAlign=middle;treeFolding=1;treeMoving=1;newEdgeStyle={&quot;edgeStyle&quot;:&quot;elbowEdgeStyle&quot;,&quot;startArrow&quot;:&quot;none&quot;,&quot;endArrow&quot;:&quot;none&quot;};" vertex="1" parent="2">
                    <mxGeometry x="220" y="260" width="50" height="60" as="geometry"/>
                </mxCell>
                <mxCell id="18" value="" style="edgeStyle=elbowEdgeStyle;elbow=vertical;sourcePerimeterSpacing=0;targetPerimeterSpacing=0;startArrow=none;endArrow=none;rounded=0;curved=0;" edge="1" target="19" source="6" parent="2">
                    <mxGeometry relative="1" as="geometry">
                        <mxPoint x="500" y="280" as="sourcePoint"/>
                    </mxGeometry>
                </mxCell>
                <mxCell id="19" value="[ b]" style="whiteSpace=wrap;html=1;align=center;verticalAlign=middle;treeFolding=1;treeMoving=1;newEdgeStyle={&quot;edgeStyle&quot;:&quot;elbowEdgeStyle&quot;,&quot;startArrow&quot;:&quot;none&quot;,&quot;endArrow&quot;:&quot;none&quot;};" vertex="1" parent="2">
                    <mxGeometry x="380" y="260" width="50" height="60" as="geometry"/>
                </mxCell>
                <mxCell id="23" value="" style="edgeStyle=elbowEdgeStyle;elbow=vertical;sourcePerimeterSpacing=0;targetPerimeterSpacing=0;startArrow=none;endArrow=none;rounded=0;curved=0;" edge="1" target="24" source="15" parent="2">
                    <mxGeometry relative="1" as="geometry">
                        <mxPoint x="230" y="390" as="sourcePoint"/>
                    </mxGeometry>
                </mxCell>
                <mxCell id="24" value="[ ]" style="whiteSpace=wrap;html=1;align=center;verticalAlign=middle;treeFolding=1;treeMoving=1;newEdgeStyle={&quot;edgeStyle&quot;:&quot;elbowEdgeStyle&quot;,&quot;startArrow&quot;:&quot;none&quot;,&quot;endArrow&quot;:&quot;none&quot;};" vertex="1" parent="2">
                    <mxGeometry x="180" y="360" width="50" height="60" as="geometry"/>
                </mxCell>
                <mxCell id="25" value="" style="edgeStyle=elbowEdgeStyle;elbow=vertical;sourcePerimeterSpacing=0;targetPerimeterSpacing=0;startArrow=none;endArrow=none;rounded=0;curved=0;" edge="1" target="26" source="15" parent="2">
                    <mxGeometry relative="1" as="geometry">
                        <mxPoint x="230" y="390" as="sourcePoint"/>
                    </mxGeometry>
                </mxCell>
                <mxCell id="26" value="[ c]" style="whiteSpace=wrap;html=1;align=center;verticalAlign=middle;treeFolding=1;treeMoving=1;newEdgeStyle={&quot;edgeStyle&quot;:&quot;elbowEdgeStyle&quot;,&quot;startArrow&quot;:&quot;none&quot;,&quot;endArrow&quot;:&quot;none&quot;};" vertex="1" parent="2">
                    <mxGeometry x="260" y="360" width="50" height="60" as="geometry"/>
                </mxCell>
                <mxCell id="27" value="" style="edgeStyle=elbowEdgeStyle;elbow=vertical;sourcePerimeterSpacing=0;targetPerimeterSpacing=0;startArrow=none;endArrow=none;rounded=0;curved=0;" edge="1" target="28" source="19" parent="2">
                    <mxGeometry relative="1" as="geometry">
                        <mxPoint x="355" y="390" as="sourcePoint"/>
                    </mxGeometry>
                </mxCell>
                <mxCell id="28" value="[ b]" style="whiteSpace=wrap;html=1;align=center;verticalAlign=middle;treeFolding=1;treeMoving=1;newEdgeStyle={&quot;edgeStyle&quot;:&quot;elbowEdgeStyle&quot;,&quot;startArrow&quot;:&quot;none&quot;,&quot;endArrow&quot;:&quot;none&quot;};" vertex="1" parent="2">
                    <mxGeometry x="340" y="360" width="50" height="60" as="geometry"/>
                </mxCell>
                <mxCell id="29" value="" style="edgeStyle=elbowEdgeStyle;elbow=vertical;sourcePerimeterSpacing=0;targetPerimeterSpacing=0;startArrow=none;endArrow=none;rounded=0;curved=0;" edge="1" target="30" source="19" parent="2">
                    <mxGeometry relative="1" as="geometry">
                        <mxPoint x="355" y="390" as="sourcePoint"/>
                    </mxGeometry>
                </mxCell>
                <mxCell id="30" value="[ b,c]" style="whiteSpace=wrap;html=1;align=center;verticalAlign=middle;treeFolding=1;treeMoving=1;newEdgeStyle={&quot;edgeStyle&quot;:&quot;elbowEdgeStyle&quot;,&quot;startArrow&quot;:&quot;none&quot;,&quot;endArrow&quot;:&quot;none&quot;};" vertex="1" parent="2">
                    <mxGeometry x="420" y="360" width="50" height="60" as="geometry"/>
                </mxCell>
                <mxCell id="31" value="[ a]" style="whiteSpace=wrap;html=1;align=center;verticalAlign=middle;treeFolding=1;treeMoving=1;newEdgeStyle={&quot;edgeStyle&quot;:&quot;elbowEdgeStyle&quot;,&quot;startArrow&quot;:&quot;none&quot;,&quot;endArrow&quot;:&quot;none&quot;};" vertex="1" parent="2">
                    <mxGeometry x="610" y="150" width="50" height="60" as="geometry"/>
                </mxCell>
                <mxCell id="32" value="" style="edgeStyle=elbowEdgeStyle;elbow=vertical;sourcePerimeterSpacing=0;targetPerimeterSpacing=0;startArrow=none;endArrow=none;rounded=0;curved=0;" edge="1" parent="2" source="31" target="33">
                    <mxGeometry relative="1" as="geometry">
                        <mxPoint x="810" y="100" as="sourcePoint"/>
                    </mxGeometry>
                </mxCell>
                <mxCell id="33" value="[ a]" style="whiteSpace=wrap;html=1;align=center;verticalAlign=middle;treeFolding=1;treeMoving=1;newEdgeStyle={&quot;edgeStyle&quot;:&quot;elbowEdgeStyle&quot;,&quot;startArrow&quot;:&quot;none&quot;,&quot;endArrow&quot;:&quot;none&quot;};" vertex="1" parent="2">
                    <mxGeometry x="530" y="260" width="50" height="60" as="geometry"/>
                </mxCell>
                <mxCell id="34" value="" style="edgeStyle=elbowEdgeStyle;elbow=vertical;sourcePerimeterSpacing=0;targetPerimeterSpacing=0;startArrow=none;endArrow=none;rounded=0;curved=0;" edge="1" parent="2" source="31" target="35">
                    <mxGeometry relative="1" as="geometry">
                        <mxPoint x="810" y="100" as="sourcePoint"/>
                    </mxGeometry>
                </mxCell>
                <mxCell id="35" value="[ a, b]" style="whiteSpace=wrap;html=1;align=center;verticalAlign=middle;treeFolding=1;treeMoving=1;newEdgeStyle={&quot;edgeStyle&quot;:&quot;elbowEdgeStyle&quot;,&quot;startArrow&quot;:&quot;none&quot;,&quot;endArrow&quot;:&quot;none&quot;};" vertex="1" parent="2">
                    <mxGeometry x="690" y="260" width="50" height="60" as="geometry"/>
                </mxCell>
                <mxCell id="36" value="" style="edgeStyle=elbowEdgeStyle;elbow=vertical;sourcePerimeterSpacing=0;targetPerimeterSpacing=0;startArrow=none;endArrow=none;rounded=0;curved=0;" edge="1" parent="2" source="33" target="37">
                    <mxGeometry relative="1" as="geometry">
                        <mxPoint x="665" y="210" as="sourcePoint"/>
                    </mxGeometry>
                </mxCell>
                <mxCell id="37" value="[ a]" style="whiteSpace=wrap;html=1;align=center;verticalAlign=middle;treeFolding=1;treeMoving=1;newEdgeStyle={&quot;edgeStyle&quot;:&quot;elbowEdgeStyle&quot;,&quot;startArrow&quot;:&quot;none&quot;,&quot;endArrow&quot;:&quot;none&quot;};" vertex="1" parent="2">
                    <mxGeometry x="490" y="360" width="50" height="60" as="geometry"/>
                </mxCell>
                <mxCell id="38" value="" style="edgeStyle=elbowEdgeStyle;elbow=vertical;sourcePerimeterSpacing=0;targetPerimeterSpacing=0;startArrow=none;endArrow=none;rounded=0;curved=0;" edge="1" parent="2" source="33" target="39">
                    <mxGeometry relative="1" as="geometry">
                        <mxPoint x="665" y="210" as="sourcePoint"/>
                    </mxGeometry>
                </mxCell>
                <mxCell id="39" value="[ a,c]" style="whiteSpace=wrap;html=1;align=center;verticalAlign=middle;treeFolding=1;treeMoving=1;newEdgeStyle={&quot;edgeStyle&quot;:&quot;elbowEdgeStyle&quot;,&quot;startArrow&quot;:&quot;none&quot;,&quot;endArrow&quot;:&quot;none&quot;};" vertex="1" parent="2">
                    <mxGeometry x="570" y="360" width="50" height="60" as="geometry"/>
                </mxCell>
                <mxCell id="40" value="" style="edgeStyle=elbowEdgeStyle;elbow=vertical;sourcePerimeterSpacing=0;targetPerimeterSpacing=0;startArrow=none;endArrow=none;rounded=0;curved=0;" edge="1" parent="2" source="35" target="41">
                    <mxGeometry relative="1" as="geometry">
                        <mxPoint x="665" y="210" as="sourcePoint"/>
                    </mxGeometry>
                </mxCell>
                <mxCell id="41" value="[ a,b]" style="whiteSpace=wrap;html=1;align=center;verticalAlign=middle;treeFolding=1;treeMoving=1;newEdgeStyle={&quot;edgeStyle&quot;:&quot;elbowEdgeStyle&quot;,&quot;startArrow&quot;:&quot;none&quot;,&quot;endArrow&quot;:&quot;none&quot;};" vertex="1" parent="2">
                    <mxGeometry x="650" y="360" width="50" height="60" as="geometry"/>
                </mxCell>
                <mxCell id="42" value="" style="edgeStyle=elbowEdgeStyle;elbow=vertical;sourcePerimeterSpacing=0;targetPerimeterSpacing=0;startArrow=none;endArrow=none;rounded=0;curved=0;" edge="1" parent="2" source="35" target="43">
                    <mxGeometry relative="1" as="geometry">
                        <mxPoint x="665" y="210" as="sourcePoint"/>
                    </mxGeometry>
                </mxCell>
                <mxCell id="43" value="[ a,b,c]" style="whiteSpace=wrap;html=1;align=center;verticalAlign=middle;treeFolding=1;treeMoving=1;newEdgeStyle={&quot;edgeStyle&quot;:&quot;elbowEdgeStyle&quot;,&quot;startArrow&quot;:&quot;none&quot;,&quot;endArrow&quot;:&quot;none&quot;};" vertex="1" parent="2">
                    <mxGeometry x="730" y="360" width="50" height="60" as="geometry"/>
                </mxCell>
                <mxCell id="52" value="" style="edgeStyle=elbowEdgeStyle;elbow=vertical;sourcePerimeterSpacing=0;targetPerimeterSpacing=0;startArrow=none;endArrow=none;rounded=0;curved=0;entryX=0.5;entryY=0;entryDx=0;entryDy=0;exitX=0.5;exitY=1;exitDx=0;exitDy=0;" edge="1" parent="2" source="5" target="31">
                    <mxGeometry relative="1" as="geometry">
                        <mxPoint x="465" y="110" as="sourcePoint"/>
                        <mxPoint x="335" y="160" as="targetPoint"/>
                    </mxGeometry>
                </mxCell>
                <mxCell id="53" value="Iteration" style="swimlane;childLayout=stackLayout;horizontal=1;fillColor=none;horizontalStack=1;resizeParent=1;resizeParentMax=0;resizeLast=0;collapsible=0;strokeColor=none;stackBorder=10;stackSpacing=-12;resizable=1;align=center;points=[];whiteSpace=wrap;html=1;" vertex="1" parent="2">
                    <mxGeometry x="12" y="350" width="150" height="60" as="geometry"/>
                </mxCell>
                <mxCell id="54" value="" style="shape=step;perimeter=stepPerimeter;fixedSize=1;points=[];whiteSpace=wrap;html=1;" vertex="1" parent="53">
                    <mxGeometry x="10" y="33" width="50" height="17" as="geometry"/>
                </mxCell>
                <mxCell id="55" value="" style="shape=step;perimeter=stepPerimeter;fixedSize=1;points=[];whiteSpace=wrap;html=1;" vertex="1" parent="53">
                    <mxGeometry x="48" y="33" width="52" height="17" as="geometry"/>
                </mxCell>
                <mxCell id="56" value="c" style="shape=step;perimeter=stepPerimeter;fixedSize=1;points=[];whiteSpace=wrap;html=1;" vertex="1" parent="53">
                    <mxGeometry x="88" y="33" width="52" height="17" as="geometry"/>
                </mxCell>
                <mxCell id="65" value="Iteration" style="swimlane;childLayout=stackLayout;horizontal=1;fillColor=none;horizontalStack=1;resizeParent=1;resizeParentMax=0;resizeLast=0;collapsible=0;strokeColor=none;stackBorder=10;stackSpacing=-12;resizable=1;align=center;points=[];whiteSpace=wrap;html=1;" vertex="1" parent="2">
                    <mxGeometry x="12" y="250" width="150" height="60" as="geometry"/>
                </mxCell>
                <mxCell id="66" value="" style="shape=step;perimeter=stepPerimeter;fixedSize=1;points=[];whiteSpace=wrap;html=1;" vertex="1" parent="65">
                    <mxGeometry x="10" y="33" width="50" height="17" as="geometry"/>
                </mxCell>
                <mxCell id="67" value="b" style="shape=step;perimeter=stepPerimeter;fixedSize=1;points=[];whiteSpace=wrap;html=1;" vertex="1" parent="65">
                    <mxGeometry x="48" y="33" width="52" height="17" as="geometry"/>
                </mxCell>
                <mxCell id="68" value="" style="shape=step;perimeter=stepPerimeter;fixedSize=1;points=[];whiteSpace=wrap;html=1;" vertex="1" parent="65">
                    <mxGeometry x="88" y="33" width="52" height="17" as="geometry"/>
                </mxCell>
                <mxCell id="69" value="Iteration" style="swimlane;childLayout=stackLayout;horizontal=1;fillColor=none;horizontalStack=1;resizeParent=1;resizeParentMax=0;resizeLast=0;collapsible=0;strokeColor=none;stackBorder=10;stackSpacing=-12;resizable=1;align=center;points=[];whiteSpace=wrap;html=1;" vertex="1" parent="2">
                    <mxGeometry x="12" y="150" width="150" height="60" as="geometry"/>
                </mxCell>
                <mxCell id="70" value="a" style="shape=step;perimeter=stepPerimeter;fixedSize=1;points=[];whiteSpace=wrap;html=1;" vertex="1" parent="69">
                    <mxGeometry x="10" y="33" width="50" height="17" as="geometry"/>
                </mxCell>
                <mxCell id="71" value="" style="shape=step;perimeter=stepPerimeter;fixedSize=1;points=[];whiteSpace=wrap;html=1;" vertex="1" parent="69">
                    <mxGeometry x="48" y="33" width="52" height="17" as="geometry"/>
                </mxCell>
                <mxCell id="72" value="" style="shape=step;perimeter=stepPerimeter;fixedSize=1;points=[];whiteSpace=wrap;html=1;" vertex="1" parent="69">
                    <mxGeometry x="88" y="33" width="52" height="17" as="geometry"/>
                </mxCell>
                <mxCell id="73" value="Iteration" style="swimlane;childLayout=stackLayout;horizontal=1;fillColor=none;horizontalStack=1;resizeParent=1;resizeParentMax=0;resizeLast=0;collapsible=0;strokeColor=none;stackBorder=10;stackSpacing=-12;resizable=1;align=center;points=[];whiteSpace=wrap;html=1;" vertex="1" parent="2">
                    <mxGeometry x="12" y="30" width="150" height="60" as="geometry"/>
                </mxCell>
                <mxCell id="74" value="" style="shape=step;perimeter=stepPerimeter;fixedSize=1;points=[];whiteSpace=wrap;html=1;" vertex="1" parent="73">
                    <mxGeometry x="10" y="33" width="50" height="17" as="geometry"/>
                </mxCell>
                <mxCell id="75" value="" style="shape=step;perimeter=stepPerimeter;fixedSize=1;points=[];whiteSpace=wrap;html=1;" vertex="1" parent="73">
                    <mxGeometry x="48" y="33" width="52" height="17" as="geometry"/>
                </mxCell>
                <mxCell id="76" value="" style="shape=step;perimeter=stepPerimeter;fixedSize=1;points=[];whiteSpace=wrap;html=1;" vertex="1" parent="73">
                    <mxGeometry x="88" y="33" width="52" height="17" as="geometry"/>
                </mxCell>
            </root>
        </mxGraphModel>
    </diagram>
</mxfile>